<?xml version="1.0" encoding="utf-8"?>
<!-- Generator: Adobe Illustrator 15.0.0, SVG Export Plug-In . SVG Version: 6.00 Build 0)  -->
<!DOCTYPE svg PUBLIC "-//W3C//DTD SVG 1.1//EN" "http://www.w3.org/Graphics/SVG/1.1/DTD/svg11.dtd">
<svg version="1.1" id="Layer_1" xmlns="http://www.w3.org/2000/svg" xmlns:xlink="http://www.w3.org/1999/xlink" x="0px" y="0px"
	 width="430.848px" height="411.264px" viewBox="0 0 430.848 411.264" enable-background="new 0 0 430.848 411.264"
	 xml:space="preserve">
<g>
	<path d="M274.896,406.944c99.648-15.912,155.952-76.681,155.952-201.24c0-124.632-56.304-185.4-155.952-201.312
		C256.536,1.44,236.664,0,215.424,0c-21.24,0-41.112,1.44-59.472,4.392C56.376,20.304,0,81.072,0,205.704
		c0,124.56,56.376,185.328,155.952,201.24c18.36,2.952,38.232,4.319,59.472,4.319C236.664,411.264,256.536,409.896,274.896,406.944z
		 M274.896,20.016c70.416,15.192,128.088,63.288,128.088,185.688c0,93.024-33.336,143.063-80.28,168.408l-26.496-178.056
		l-21.312-60.048L231.768,14.544C246.384,15.264,260.928,16.992,274.896,20.016z M207.288,14.184c2.736-0.072,5.4-0.144,8.136-0.144
		c2.664,0,5.399,0.072,8.136,0.144l2.376,148.392h-10.512h-10.512L207.288,14.184z M27.864,205.704
		c0-122.4,57.672-170.496,128.088-185.688c13.968-3.024,28.512-4.752,43.128-5.472l-43.128,121.464l-21.312,60.048l-26.496,178.056
		C61.2,348.768,27.864,298.729,27.864,205.704z M155.952,391.32c-15.12-3.313-29.664-8.064-43.2-14.761l43.2-89.64l46.8-97.128
		h12.672h12.672l46.8,97.128l43.2,89.64c-13.536,6.696-28.08,11.448-43.2,14.761c-19.152,4.104-39.312,5.832-59.472,5.903
		C195.264,397.152,175.104,395.424,155.952,391.32z"/>
</g>
</svg>
