<?xml version="1.0" encoding="utf-8"?>
<!-- Generator: Adobe Illustrator 15.0.0, SVG Export Plug-In . SVG Version: 6.00 Build 0)  -->
<!DOCTYPE svg PUBLIC "-//W3C//DTD SVG 1.1//EN" "http://www.w3.org/Graphics/SVG/1.1/DTD/svg11.dtd">
<svg version="1.1" xmlns="http://www.w3.org/2000/svg" xmlns:xlink="http://www.w3.org/1999/xlink" x="0px" y="0px"
	 width="498.503px" height="498.503px" viewBox="0 0 498.503 498.503" enable-background="new 0 0 498.503 498.503"
	 xml:space="preserve">
<g id="Layer_2">
</g>
<g id="Layer_1">
	<path d="M425.498,73.005C378.42,25.927,315.828,0,249.251,0C111.814,0,0,111.814,0,249.251c0,66.577,25.927,129.169,73.005,176.247
		c47.078,47.078,109.67,73.005,176.247,73.005s129.169-25.927,176.247-73.005c47.078-47.078,73.005-109.67,73.005-176.247
		C498.503,182.675,472.576,120.083,425.498,73.005z M249.251,489.879c-64.273,0-124.7-25.03-170.148-70.479
		C33.654,373.951,8.624,313.524,8.624,249.251s25.03-124.7,70.479-170.148C124.552,33.654,184.979,8.624,249.251,8.624
		s124.7,25.03,170.148,70.479c45.449,45.449,70.479,105.875,70.479,170.148C489.879,381.934,381.934,489.879,249.251,489.879z"/>
	<g>
		<path d="M111.362,249.251h137.89v-137.89C173.098,111.362,111.362,173.098,111.362,249.251z"/>
		<path d="M249.251,249.251v137.89c76.153,0,137.89-61.736,137.89-137.89H249.251z"/>
	</g>
	<path d="M249.251,18.541c-127.416,0-230.711,103.295-230.711,230.711s103.295,230.711,230.711,230.711
		s230.711-103.295,230.711-230.711S376.667,18.541,249.251,18.541z M215.534,31.137H233.8l16.53,43.254l16.529-43.254h18.267v60.727
		h-12.158V49.462L256.97,91.864h-13.281l-15.998-42.401v42.401h-12.157V31.137z M62.383,131.037l29.632-35.313
		c6.133-7.309,14.708-13.146,22.856-6.309c2.517,2.112,3.583,2.809,6.637,8.378c0.719,1.976,1.272,5.557-0.083,9.066
		c7.089-4.396,14.641-2.963,19.525,1.784c7.507,7.296,6.402,15.731-0.738,24.241l-31.249,37.24L62.383,131.037z M249.251,396.622
		c-81.389,0-147.37-65.981-147.37-147.37s65.981-147.37,147.37-147.37s147.37,65.981,147.37,147.37S330.641,396.622,249.251,396.622
		z M386.568,171.365l-11.027-13.727l21.969-32.123l-0.13-0.161l-35.989,14.81l-11.134-13.64l38.097-49.004l9.396,11.604
		l-23.857,31.208l36.457-15.652l10.081,12.448l-22.89,32.407l35.486-16.848l9.396,11.604L386.568,171.365z"/>
	<path d="M98.491,104.464c2.062-2.458,6.722-2.357,9.719,0.157c3.295,2.765,3.304,6.685,1.091,9.322l-17.597,20.971l-11.011-9.239
		L98.491,104.464z"/>
	<path d="M129.8,129.203l-18.553,22.11l-11.634-9.762l18.703-22.29c2.112-2.517,6.821-3.25,9.997-0.585
		C131.908,121.692,132.264,126.267,129.8,129.203z"/>
</g>
</svg>
