<?xml version="1.0" encoding="utf-8"?>
<!-- Generator: Adobe Illustrator 15.0.0, SVG Export Plug-In . SVG Version: 6.00 Build 0)  -->
<!DOCTYPE svg PUBLIC "-//W3C//DTD SVG 1.1//EN" "http://www.w3.org/Graphics/SVG/1.1/DTD/svg11.dtd">
<svg version="1.1" xmlns="http://www.w3.org/2000/svg" xmlns:xlink="http://www.w3.org/1999/xlink" x="0px" y="0px"
	 width="77.099px" height="77.098px" viewBox="0 0 77.099 77.098" enable-background="new 0 0 77.099 77.098" xml:space="preserve">
<g id="Layer_2">
</g>
<g id="Layer_1">
	<path fill-rule="evenodd" clip-rule="evenodd" d="M38.55,0C17.259,0,0,17.259,0,38.549c0,21.291,17.259,38.549,38.55,38.549
		c21.289,0,38.549-17.259,38.549-38.549C77.099,17.259,59.839,0,38.55,0z M38.55,73.43c-19.264,0-34.881-15.617-34.881-34.881
		c0-19.263,15.617-34.88,34.881-34.88c19.263,0,34.88,15.617,34.88,34.88C73.43,57.813,57.813,73.43,38.55,73.43z"/>
	<path fill-rule="evenodd" clip-rule="evenodd" d="M28.922,48.269c0.185-1.07,0.06-2.282,0.06-3.255v-15.39H18.346L28.922,48.269
		L28.922,48.269z"/>
	<path fill-rule="evenodd" clip-rule="evenodd" d="M27.492,53.534c-0.937,2.572-2.304,5.179-3.991,7.927
		c-3.328-5.423-5.411-10.295-5.406-15.441v-8.865L27.492,53.534L27.492,53.534z"/>
	<path fill-rule="evenodd" clip-rule="evenodd" d="M44.101,42.75c0.185-1.071,0.06-2.282,0.06-3.255v-15.39H33.524L44.101,42.75
		L44.101,42.75z"/>
	<path fill-rule="evenodd" clip-rule="evenodd" d="M42.671,48.014c-0.938,2.572-2.305,5.179-3.991,7.927
		c-3.328-5.423-5.411-10.295-5.406-15.441v-8.865L42.671,48.014L42.671,48.014z"/>
	<path fill-rule="evenodd" clip-rule="evenodd" d="M45.169,15.33v5.52H29.991v5.519H14.813v19.61c0,8.202,5.214,16.307,8.688,22.116
		c2.936-4.909,7.175-11.457,8.418-18.317c1.836,4.792,4.625,9.229,6.76,12.798c2.936-4.908,7.175-11.457,8.419-18.317
		c1.835,4.792,4.625,9.229,6.76,12.797c3.474-5.809,8.774-13.914,8.774-22.115V15.33H45.169z M29.744,46.978
		c0,5.889-3.741,11.91-6.234,16.081c-2.495-4.171-6.149-10.191-6.149-16.081V28.897h12.384V46.978z M44.923,41.458
		c0,5.889-3.741,11.91-6.235,16.081c-2.494-4.17-6.149-10.191-6.149-16.081v-18.08h12.384V41.458z M60.101,35.939
		c0,5.889-3.74,11.91-6.234,16.08c-2.495-4.17-6.149-10.191-6.149-16.08V17.858h12.384V35.939z"/>
	<path fill-rule="evenodd" clip-rule="evenodd" d="M59.278,37.229c0.186-1.07,0.06-2.282,0.06-3.254v-15.39H48.703L59.278,37.229
		L59.278,37.229z"/>
	<path fill-rule="evenodd" clip-rule="evenodd" d="M57.849,42.495c-0.938,2.573-2.304,5.179-3.99,7.928
		c-3.328-5.423-5.411-10.295-5.407-15.441v-8.865L57.849,42.495L57.849,42.495z"/>
	<path fill-rule="evenodd" clip-rule="evenodd" d="M72.098,64.705c-1.564,0-2.827,1.262-2.827,2.812
		c0,1.565,1.263,2.827,2.827,2.827c1.558,0,2.812-1.262,2.812-2.827C74.909,65.967,73.655,64.705,72.098,64.705z M72.098,70.004
		c-1.372,0-2.479-1.107-2.479-2.488c0-1.365,1.107-2.472,2.479-2.472c1.366,0,2.473,1.107,2.473,2.472
		C74.57,68.897,73.464,70.004,72.098,70.004z"/>
	<path fill-rule="evenodd" clip-rule="evenodd" d="M73.544,66.779c0-0.266-0.118-0.546-0.354-0.679
		c-0.236-0.14-0.502-0.155-0.768-0.155H71.05v3.151h0.384v-1.454h0.708l0.9,1.454H73.5l-0.952-1.454
		C73.108,67.627,73.544,67.399,73.544,66.779z M72.024,67.34h-0.591v-1.115h0.9c0.392,0,0.819,0.059,0.819,0.546
		C73.153,67.414,72.467,67.34,72.024,67.34z"/>
</g>
</svg>
