<?xml version="1.0" encoding="utf-8"?>
<!-- Generator: Adobe Illustrator 15.0.0, SVG Export Plug-In . SVG Version: 6.00 Build 0)  -->
<!DOCTYPE svg PUBLIC "-//W3C//DTD SVG 1.1//EN" "http://www.w3.org/Graphics/SVG/1.1/DTD/svg11.dtd">
<svg version="1.1"
	 id="Layer_1" shape-rendering="geometricPrecision" image-rendering="optimizeQuality" text-rendering="geometricPrecision"
	 xmlns="http://www.w3.org/2000/svg" xmlns:xlink="http://www.w3.org/1999/xlink" x="0px" y="0px" width="2048.996px"
	 height="1665.941px" viewBox="-0.002 0.205 2048.996 1665.941" enable-background="new -0.002 0.205 2048.996 1665.941"
	 xml:space="preserve">
<g id="Ebene_x0020_1">
	<g id="g1963">
		<path id="path1965" d="M1496.049,141.03c-47.117,210.016-65.684,306.485-103.942,458.542
			c-36.709,145.935-65.141,281.321-114.318,346.974c-49.924,66.604-116.494,81.107-161.837,86.21
			c-23.472,2.632-40.586,3.813-91.42,4.007c-50.844-0.205-67.947-1.375-91.421-4.007c-45.341-5.103-111.946-19.605-161.837-86.21
			c-49.154-65.662-77.609-201.07-114.351-346.974c-38.236-152.068-56.834-248.536-103.919-458.542c0,0-46.979,1.831-67.775,3.293
			c-28.119,2.003-50.129,4.409-74.11,7.593c0,0,27.025,431.894,39.266,614.876c12.867,192.47,35.452,516.783,56.683,761.667
			c0,0,39.438,6.271,104.948,10.031c68.9,3.953,99.533,4.386,99.533,4.386c28.348-107.873,63.398-257.59,103.205-321.442
			c32.354-51.928,82.191-57.43,110.451-61.297c44.39-6.045,81.823-6.965,99.166-6.424l0,0c0.053,0,0.119,0,0.172,0
			c0.055,0,0.142,0,0.174,0l0,0c17.343-0.574,54.798,0.368,99.187,6.424c28.229,3.867,78.098,9.369,110.452,61.297
			c39.807,63.854,74.858,213.569,103.227,321.442c0,0,30.632-0.454,99.533-4.386c65.488-3.76,104.949-10.031,104.949-10.031
			c21.208-244.896,43.813-569.166,56.714-761.667c12.24-182.992,39.233-614.876,39.233-614.876
			c-23.96-3.184-45.97-5.557-74.111-7.593C1543.017,142.871,1496.049,141.03,1496.049,141.03L1496.049,141.03z"/>
		<path id="path1967" d="M2040.191,396.009c-27.859-274.314-210.872-332.243-371.541-359.181
			c-80.989-13.583-224.835-25.076-317.057-28.856c-80.588-5.156-270.674-7.745-327.107-7.767
			c-56.402,0.033-246.5,2.61-327.088,7.767c-92.221,3.78-236.067,15.273-317.024,28.856C219.686,63.766,36.661,121.695,8.78,396.009
			c-7.593,74.717-9.771,172.214-8.395,277.195c2.297,173.817,17.223,291.2,25.769,372.45c5.871,55.773,29.17,223.428,59.098,310.146
			c41.097,119.159,78.043,153.865,121.544,189.318c79.526,64.859,210.505,84.802,238.418,89.816
			c147.887,26.592,447.169,31.38,579.284,31.206c132.146,0.174,431.461-4.614,579.281-31.206
			c27.947-5.015,158.914-24.968,238.441-89.816c43.5-35.452,80.447-70.158,121.543-189.318
			c29.918-86.72,53.195-254.373,59.099-310.146c8.535-81.249,23.472-198.633,25.735-372.45
			C2049.995,568.222,2047.818,470.693,2040.191,396.009L2040.191,396.009z M1939.684,856.792
			c-16.248,219.127-35.733,350.527-63.593,445.251c-24.479,82.972-54.798,138.712-99.078,178.778
			c-73.916,66.864-175.714,81.216-235.439,90.108c-129.028,19.141-346.314,25.791-517.099,25.855
			c-170.782-0.053-388.047-6.705-517.097-25.855c-59.694-8.881-161.47-23.244-235.374-90.108
			c-44.302-40.067-74.631-95.84-99.078-178.778c-27.881-94.713-47.378-226.124-63.594-445.251
			c-9.792-132.082-7.723-346.086,6.976-461.097c21.87-171.489,107.017-257.872,289.489-290.4
			c85.149-15.165,199.607-25.931,308.229-31.292c87.1-5.871,230.446-8.828,310.462-8.081c80.046-0.748,223.394,2.209,310.459,8.081
			c108.621,5.383,223.08,16.139,308.229,31.292c182.473,32.528,267.62,118.879,289.544,290.378
			C1947.396,510.706,1949.433,724.71,1939.684,856.792z"/>
	</g>
</g>
</svg>
