<?xml version="1.0" encoding="utf-8"?>
<!-- Generator: Adobe Illustrator 15.0.0, SVG Export Plug-In . SVG Version: 6.00 Build 0)  -->
<!DOCTYPE svg PUBLIC "-//W3C//DTD SVG 1.1//EN" "http://www.w3.org/Graphics/SVG/1.1/DTD/svg11.dtd">
<svg version="1.1" id="Layer_1" xmlns="http://www.w3.org/2000/svg" xmlns:xlink="http://www.w3.org/1999/xlink" x="0px" y="0px"
	 width="525.096px" height="266.184px" viewBox="0 0 525.096 266.184" enable-background="new 0 0 525.096 266.184"
	 xml:space="preserve">
<g>
	<path d="M171.504,130.176l37.584-55.008c1.44-2.16-0.288-4.608-3.312-4.608l-29.016-0.216c-2.16,0-6.48,2.736-8.352,5.112
		L155.304,92.52l-18.216,23.832l0.144-41.184c0-2.808-2.952-4.608-4.752-4.608H99.216c-2.304,0-4.392,0.864-4.464,5.112
		c-0.072,4.176,5.112,5.04,5.112,6.192v110.088c0,2.088,2.88,5.256,4.896,5.256l28.512-0.144c2.016-0.072,3.744-2.952,3.744-4.896
		l0.072-45.864l18.216,22.536L174.6,192.6c1.584,1.873,4.68,4.465,7.92,4.465l30.96-0.217c2.952,0,2.664-3.6,1.944-4.535
		C200.88,171.936,186.12,150.984,171.504,130.176z"/>
	<path d="M278.352,70.56h-16.776h-16.128c-3.888,0-4.752,2.304-5.4,4.752c0.721,4.464,5.4,5.688,5.4,5.76v111.096
		c0,2.952,1.801,4.896,4.32,4.896l11.808-0.072l17.568-0.145c3.24,0,4.104-1.943,4.104-4.68v-117
		C283.248,72.36,280.872,70.56,278.352,70.56z"/>
	<path d="M378.504,13.824C343.512,4.968,304.128,0,262.512,0c-0.288,0-0.576,0.072-0.937,0.072
		c-37.728,0-73.728,4.176-106.271,11.592C63.936,32.544,0,79.2,0,133.128c0,53.929,63.936,100.584,155.304,121.464
		c32.544,7.416,68.544,11.592,106.271,11.592c0.36,0,0.648,0,0.937,0c41.616,0,81-4.896,115.992-13.752
		c86.76-21.744,146.592-67.104,146.592-119.304C525.096,80.928,465.264,35.568,378.504,13.824z M378.504,223.416
		c-34.488,7.992-74.017,12.528-115.992,12.528c-0.288,0-0.576-0.072-0.937-0.072c-38.016,0-74.088-3.815-106.271-10.512
		C74.736,208.584,19.152,173.52,19.152,133.128s55.584-75.456,136.152-92.232c32.184-6.696,68.256-10.512,106.271-10.584
		c0.36,0,0.648,0,0.937,0c41.976,0,81.504,4.536,115.992,12.528c75.815,17.424,127.439,51.408,127.439,90.288
		S454.32,205.992,378.504,223.416z"/>
	<path d="M401.184,75.312c-1.08-2.448-2.952-4.752-5.4-4.752h-17.279h-27.217c-1.584,0-3.744,1.296-3.744,3.456
		c-0.071,6.336,6.553,6.12,6.192,7.056l-37.512,110.664c-0.648,1.872,1.008,5.328,3.312,5.328l26.137-0.217
		c2.304,0,5.544-1.943,6.479-4.752l12.384-37.151c4.177-12.384,8.353-24.768,12.456-37.152c0.216-0.504,0.864-0.792,1.513-0.792
		c1.008,0,2.088,0.36,2.304,1.08l24.264,74.448c0.504,1.655,3.888,4.319,5.688,4.319l27.216,0.217c1.584,0,3.456-3.168,2.952-4.608
		L401.184,75.312z"/>
</g>
</svg>
