<?xml version="1.0" encoding="utf-8"?>
<!-- Generator: Adobe Illustrator 15.0.0, SVG Export Plug-In . SVG Version: 6.00 Build 0)  -->
<!DOCTYPE svg PUBLIC "-//W3C//DTD SVG 1.1//EN" "http://www.w3.org/Graphics/SVG/1.1/DTD/svg11.dtd">
<svg version="1.1" id="Layer_1" xmlns="http://www.w3.org/2000/svg" xmlns:xlink="http://www.w3.org/1999/xlink" x="0px" y="0px"
	 width="41.264px" height="33.366px" viewBox="0 0 41.264 33.366" enable-background="new 0 0 41.264 33.366" xml:space="preserve">
<path fill-rule="evenodd" clip-rule="evenodd" d="M13.425,16.453c3.159,1.316,5.265,3.159,7.173,7.305
	c1.909-4.146,3.949-6.252,7.174-7.568c2.702-0.968,5.405-1.936,8.108-2.904c0.017,0.069,0.034,0.138,0.052,0.206
	c0.132,0.921,0.197,2.041,0.197,3.16c0,11.45-7.568,13.754-15.531,13.688c-7.963,0.066-15.465-2.237-15.465-13.688
	c0-0.856,0-1.712,0.131-2.436c0.039-0.162,0.078-0.323,0.118-0.485C8.063,14.638,10.745,15.545,13.425,16.453L13.425,16.453z
	 M34.136,8.513c-0.059-0.095-0.119-0.191-0.178-0.286c-2.83-4.212-7.963-5.199-13.36-5.199c-5.396,0-10.661,1.053-13.425,5.331
	C7.074,8.53,6.976,8.701,6.876,8.873c4.749,2.714,10.136,2.764,13.722,9.62C23.893,11.426,29.34,11.327,34.136,8.513L34.136,8.513z
	 M37.973,6.055c-0.154-0.176-0.307-0.351-0.46-0.526C33.3,0.987,26.39,0,20.599,0C14.742,0,7.634,0.987,3.488,5.791
	C3.422,5.879,3.356,5.967,3.291,6.055C1.25,8.49,0,11.978,0,16.651c0,14.412,11.714,16.715,20.599,16.715
	c8.951,0,20.665-2.303,20.665-16.715C41.264,11.978,40.013,8.49,37.973,6.055L37.973,6.055z"/>
</svg>
