<?xml version="1.0" encoding="utf-8"?>
<!-- Generator: Adobe Illustrator 15.0.0, SVG Export Plug-In . SVG Version: 6.00 Build 0)  -->
<!DOCTYPE svg PUBLIC "-//W3C//DTD SVG 1.1//EN" "http://www.w3.org/Graphics/SVG/1.1/DTD/svg11.dtd">
<svg version="1.1"
	 id="svg2231" xmlns:cc="http://creativecommons.org/ns#" xmlns:svg="http://www.w3.org/2000/svg" xmlns:inkscape="http://www.inkscape.org/namespaces/inkscape" xmlns:rdf="http://www.w3.org/1999/02/22-rdf-syntax-ns#" xmlns:sodipodi="http://sodipodi.sourceforge.net/DTD/sodipodi-0.dtd" xmlns:dc="http://purl.org/dc/elements/1.1/" inkscape:version="0.47 r22583" sodipodi:docname="Mercedes-Benz_logo.svg"
	 xmlns="http://www.w3.org/2000/svg" xmlns:xlink="http://www.w3.org/1999/xlink" x="0px" y="0px" width="94.644px"
	 height="94.654px" viewBox="52.792 0 94.644 94.654" enable-background="new 52.792 0 94.644 94.654" xml:space="preserve">
<sodipodi:namedview  id="namedview27" pagecolor="#ffffff" inkscape:zoom="0.43847562" objecttolerance="10" inkscape:cx="354.33071" gridtolerance="10" inkscape:cy="251.388" guidetolerance="10" bordercolor="#666666" borderopacity="1" showgrid="false" inkscape:current-layer="svg2231" inkscape:window-y="-4" inkscape:window-x="-4" inkscape:window-height="710" inkscape:window-width="1280" inkscape:pageshadow="2" inkscape:pageopacity="0" inkscape:window-maximized="1">
	</sodipodi:namedview>
<defs>
	
	
		<inkscape:perspective  id="perspective31" sodipodi:type="inkscape:persp3d" inkscape:vp_x="0 : 269.11417 : 1" inkscape:vp_z="744.09448 : 269.11417 : 1" inkscape:vp_y="0 : 1000 : 0" inkscape:persp3d-origin="372.04724 : 179.40944 : 1">
		</inkscape:perspective>
</defs>
<g id="g4178" transform="translate(17.716541,17.72616)">
	<path id="path9979" fill="#231F20" d="M129.719,29.602c0,26.014-21.318,47.327-47.322,47.327
		c-25.982,0-47.322-21.313-47.322-47.327s21.319-47.328,47.322-47.328C108.417-17.726,129.719,3.587,129.719,29.602z M71.912,34.89
		l-0.059,0.107l0.149-0.054l9.065-5.341l-1.608-0.908L71.912,34.89z M113.294,47.069h0.172l-0.097-0.16L85.87,28.426l-2.089,1.175
		L113.294,47.069L113.294,47.069z M82.115-3.517L82.04-3.624l-0.081,0.107l-1.912,30.928l1.704,1.015L82.115-3.517z M110.789-3.784
		l0.059,0.16c2.238,2.083,4.358,4.327,6.276,6.73c5.973,7.479,9.086,16.933,9.086,26.495c0,7.532-2.014,14.796-5.613,21.367
		l0.491,0.908l-1.026,0.053c-7.867,13.141-22.322,21.42-37.664,21.42c-15.363,0-29.737-8.227-37.611-21.42l-0.967-0.053l0.401-0.908
		c-2.297-4.22-3.873-8.707-4.802-13.408l-0.091-0.107l-0.059,0.16c0.609,4.968,2.179,9.829,4.551,14.263
		c7.74,14.529,22.173,23.076,38.599,23.076c24.936,0,45.271-20.459,45.271-45.351c0-12.767-6.582-25.64-16.746-33.386H110.789
		L110.789-3.784z M81.677-13.132C58.446-12.705,39.685,6.258,39.685,29.602c0,7.265,1.992,14.262,5.293,20.672L74.62,25.969
		l2.431,1.389L44.675,51.128l-0.134,0.32h0.363l36.81-20.726l-0.075,7.425L45.753,51.609c7.607,12.766,21.811,20.672,36.644,20.672
		c14.908,0,28.926-7.906,36.623-20.672L83.156,38.148l-0.096-7.425l36.912,20.726h0.32l-0.15-0.267L87.745,27.358l2.408-1.389
		l29.663,24.305c3.397-6.357,5.347-13.408,5.347-20.672c0-23.557-18.68-42.04-41.985-42.787l6.218,37.873l-6.352,3.739L82.584-13.88
		l-0.187-0.214l-0.171,0.214L77.75,26.022l-2.388-1.335L81.677-13.132L81.677-13.132z M52.185,64.375
		c-9.198-9.24-14.492-21.634-14.492-34.774c0-24.625,20.085-44.71,44.705-44.71c21.564,0,39.94,15.598,45.33,36.057l0.112,0.054
		l0.059-0.107c-4.306-21.634-23.29-37.552-45.5-37.552c-25.432,0-46.275,20.833-46.275,46.259c0,13.408,5.956,26.067,15.966,34.934
		h0.134L52.185,64.375"/>
</g>
</svg>
