<?xml version="1.0" encoding="utf-8"?>
<!-- Generator: Adobe Illustrator 15.0.0, SVG Export Plug-In . SVG Version: 6.00 Build 0)  -->
<!DOCTYPE svg PUBLIC "-//W3C//DTD SVG 1.1//EN" "http://www.w3.org/Graphics/SVG/1.1/DTD/svg11.dtd">
<svg version="1.1" id="Layer_1" xmlns="http://www.w3.org/2000/svg" xmlns:xlink="http://www.w3.org/1999/xlink" x="0px" y="0px"
	 width="288.484px" height="156.313px" viewBox="56.175 0 288.484 156.313" enable-background="new 56.175 0 288.484 156.313"
	 xml:space="preserve">
<g>
	<path fill="none" d="M333.041,78.306c0,37.757-59.238,68.367-132.322,68.367c-73.08,0-132.321-30.61-132.321-68.367
		c0-37.755,59.242-68.363,132.321-68.363C273.803,9.943,333.041,40.551,333.041,78.306z"/>
</g>
<linearGradient id="SVGID_1_" gradientUnits="userSpaceOnUse" x1="-343.9893" y1="258.3853" x2="-371.0943" y2="440.0379" gradientTransform="matrix(1 0 0 -1 556 411.1162)">
	<stop  offset="0.0055" style="stop-color:#000000"/>
	<stop  offset="0.0063" style="stop-color:#040404"/>
	<stop  offset="0.0524" style="stop-color:#444550"/>
	<stop  offset="0.0993" style="stop-color:#4C536A"/>
	<stop  offset="0.1465" style="stop-color:#455378"/>
	<stop  offset="0.1938" style="stop-color:#344F80"/>
	<stop  offset="0.2411" style="stop-color:#1D4B84"/>
	<stop  offset="0.2886" style="stop-color:#004787"/>
	<stop  offset="0.3363" style="stop-color:#004588"/>
	<stop  offset="0.3846" style="stop-color:#004489"/>
	<stop  offset="1" style="stop-color:#004489"/>
</linearGradient>
<path display="none" fill="url(#SVGID_1_)" d="M234.61,12.211c20.156,10.472,32.646,24.991,32.646,41.042
	c0,31.918-49.38,57.794-110.294,57.794c-35.369,0-66.847-8.727-87.033-22.292c9.736,32.797,64.584,57.917,130.789,57.917
	c73.084,0,132.322-30.609,132.322-68.366C333.041,46.604,291.267,19.943,234.61,12.211z"/>
<g>
	<path stroke="#000000" stroke-width="1.8107" d="M331.569,88.642"/>
</g>
<g>
	<g>
		<path d="M200.413,156.313c-79.533,0-144.238-35.061-144.238-78.157C56.175,35.061,120.88,0,200.413,0
			c79.538,0,144.246,35.061,144.246,78.156C344.659,121.252,279.951,156.313,200.413,156.313z M200.413,1.811
			c-78.535,0-142.428,34.249-142.428,76.346s63.893,76.346,142.428,76.346c78.539,0,142.436-34.249,142.436-76.346
			S278.952,1.811,200.413,1.811z"/>
	</g>
	<g>
		<path d="M200.566,146.204c-72.714,0-131.871-30.661-131.871-68.349c0-37.689,59.157-68.352,131.871-68.352
			c72.715,0.001,131.874,30.664,131.874,68.352S273.281,146.204,200.566,146.204z M200.566,10.409
			c-72.214,0-130.965,30.256-130.965,67.446c0,37.188,58.751,67.444,130.965,67.444c72.216,0,130.969-30.256,130.969-67.444
			C331.535,40.666,272.782,10.41,200.566,10.409z"/>
	</g>
	<g>
		<path fill="none" d="M343.754,78.156c0,42.665-64.174,77.251-143.341,77.251c-79.159,0-143.333-34.587-143.333-77.251
			c0-42.665,64.174-77.251,143.333-77.251C279.58,0.905,343.754,35.492,343.754,78.156z"/>
	</g>
	<g>
		<path fill="none" d="M341.342,77.4c0,41.248-63.03,74.688-140.775,74.688S59.798,118.649,59.798,77.4
			c0-41.247,63.023-74.686,140.769-74.686C278.312,2.714,341.342,36.154,341.342,77.4z"/>
	</g>
	<g>
		<path d="M200.413,0.905c-79.159,0-143.333,34.586-143.333,77.251c0,42.665,64.174,77.251,143.333,77.251
			c79.167,0,143.341-34.587,143.341-77.251C343.754,35.491,279.58,0.905,200.413,0.905z M200.566,152.087
			c-77.745,0-140.769-33.438-140.769-74.688c0-41.247,63.023-74.686,140.769-74.686c77.744,0,140.775,33.439,140.775,74.686
			C341.342,118.648,278.312,152.087,200.566,152.087z"/>
	</g>
	<g>
		<path fill="none" d="M331.987,77.855c0,37.498-58.838,67.896-131.421,67.896c-72.576,0-131.418-30.398-131.418-67.896
			c0-37.501,58.842-67.899,131.418-67.899C273.149,9.957,331.987,40.354,331.987,77.855z"/>
	</g>
	<g>
		<path d="M200.413,0.905c-79.159,0-143.333,34.586-143.333,77.251c0,42.665,64.174,77.251,143.333,77.251
			c79.167,0,143.341-34.587,143.341-77.251C343.754,35.491,279.58,0.905,200.413,0.905z M200.566,145.751
			c-72.576,0-131.418-30.398-131.418-67.896c0-37.501,58.842-67.899,131.418-67.899c72.583,0,131.421,30.398,131.421,67.899
			C331.987,115.353,273.149,145.751,200.566,145.751z"/>
	</g>
	<g>
		<path d="M199.961,4.075c-76.66,0-138.808,32.963-138.808,73.627c0,40.666,62.148,73.629,138.808,73.629
			c76.668,0,138.812-32.963,138.812-73.629C338.772,37.039,276.629,4.075,199.961,4.075z M200.566,145.751
			c-72.576,0-131.418-30.398-131.418-67.896c0-37.501,58.842-67.899,131.418-67.899c72.583,0,131.421,30.398,131.421,67.899
			C331.987,115.353,273.149,145.751,200.566,145.751z"/>
	</g>
	<g>
		<path d="M200.566,8.867c-73.744,0-133.525,30.887-133.525,68.989c0,38.101,59.781,68.989,133.525,68.989
			c73.748,0,133.527-30.888,133.527-68.989C334.094,39.753,274.313,8.867,200.566,8.867z M200.566,145.751
			c-72.576,0-131.418-30.398-131.418-67.896c0-37.501,58.842-67.899,131.418-67.899c72.583,0,131.421,30.398,131.421,67.899
			C331.987,115.353,273.149,145.751,200.566,145.751z"/>
	</g>
	<g>
		<path d="M176.804,114.368c0,0-13.803,1.055-13.729,2.563c0.076,1.509,11.391,2.64,13.274,2.868
			c1.888,0.226,9.281,1.057,11.395,1.811c2.11,0.757,3.546,1.358,4.376,3.699c0.827,2.336,2.864,9.276,2.864,9.276
			s0.98,3.847,1.812,3.847c0.83,0,1.808-4.072,1.808-4.072s2.04-8.676,3.549-10.259c1.509-1.587,1.734-2.188,8.45-3.245
			c6.713-1.057,13.349-2.263,18.405-2.263c5.058,0,6.038,0.075,9.125,0.45c3.101,0.379,9.736,1.211,12.374,2.039
			c2.643,0.83,3.551,2.717,4.229,4.453c0.681,1.732,2.188,6.336,2.188,6.336s0.376,1.887,1.283,1.887
			c0.903,0,1.278-1.963,1.278-1.963s2.416-7.693,3.771-8.901c1.363-1.208,2.345-2.339,9.056-3.167
			c6.717-0.833,10.713-1.662,13.054-1.813c2.335-0.151,3.997-0.454,3.997-1.206c0-0.756-0.907-1.057-4.225-1.51
			c-3.318-0.452-13.201-1.51-18.412-2.642c-5.199-1.128-5.502-5.278-6.264-7.314c-0.751-2.037-1.275-5.282-2.484-5.282
			c-1.211,0-1.506,2.188-1.735,2.868c-0.226,0.678-1.433,4.978-2.335,6.412c-0.908,1.434-1.59,3.017-5.131,3.698
			c-3.547,0.678-10.186,2.11-16.445,2.261c-6.262,0.149-9.811-0.301-14.714-0.905c-4.901-0.605-9.427-0.829-12.823-2.341
			c-3.396-1.507-5.131-6.484-6.038-9.501c-0.903-3.018-1.505-4.451-2.037-4.451c-0.528,0-1.505,2.263-2.109,4.223
			c-0.602,1.962-2.19,7.772-4.526,9.207C187.743,112.859,183.818,113.687,176.804,114.368z"/>
		<path d="M196.796,139.337c-0.459,0-1.536,0-2.689-4.528c-0.012-0.038-2.03-6.912-2.84-9.198c-0.689-1.943-1.787-2.417-3.828-3.148
			c-1.857-0.662-8.497-1.446-10.679-1.703l-1.242-0.145c-12.265-1.388-13.286-2.426-13.347-3.638
			c-0.041-0.835-0.118-2.389,14.564-3.511c6.986-0.679,10.722-1.493,12.876-2.809c1.863-1.144,3.398-6.258,3.977-8.184l0.156-0.516
			c1.499-4.863,2.571-4.863,2.975-4.863c1.171,0,1.779,1.335,2.904,5.097c0.556,1.847,2.248,7.472,5.538,8.933
			c2.61,1.162,6.079,1.543,9.752,1.947c0.921,0.102,1.86,0.205,2.815,0.323l0.196,0.024c4.72,0.581,8.282,1.018,14.385,0.874
			c5.494-0.132,11.223-1.253,15.014-1.996l1.283-0.249c2.847-0.548,3.521-1.644,4.3-2.914l0.236-0.38
			c0.681-1.083,1.666-4.331,2.037-5.554c0.093-0.308,0.163-0.539,0.203-0.66c0.037-0.107,0.072-0.253,0.115-0.421
			c0.272-1.072,0.779-3.066,2.479-3.066c1.57,0,2.164,2.022,2.793,4.163c0.176,0.599,0.351,1.196,0.541,1.712
			c0.125,0.334,0.24,0.727,0.365,1.154c0.616,2.117,1.384,4.751,5.241,5.588c3.954,0.859,10.648,1.678,15.078,2.22
			c1.352,0.166,2.486,0.304,3.264,0.41c2.907,0.397,5.008,0.684,5.008,2.407c0,1.657-2.393,1.951-4.844,2.109
			c-1.136,0.073-2.688,0.314-4.836,0.647c-2.143,0.332-4.809,0.745-8.165,1.161c-6.118,0.755-7.214,1.736-8.375,2.775l-0.191,0.171
			c-0.726,0.646-2.342,4.794-3.492,8.447c-0.139,0.688-0.665,2.645-2.157,2.645c-1.511,0-2.044-2.017-2.159-2.559
			c-0.163-0.495-1.528-4.644-2.155-6.238c-0.65-1.666-1.418-3.217-3.657-3.921c-2.668-0.837-9.852-1.715-12.212-2.003
			c-3.1-0.376-4.049-0.443-9.016-0.443c-4.251,0-9.644,0.868-15.352,1.787c-0.967,0.155-1.938,0.313-2.913,0.466
			c-6.033,0.95-6.518,1.466-7.688,2.713l-0.247,0.262c-0.976,1.023-2.557,6.58-3.324,9.842
			C198.34,139.337,197.258,139.337,196.796,139.337z M164.646,116.964c1.201,0.416,4.1,1.062,11.076,1.852l1.25,0.146
			c4.202,0.496,9.258,1.148,11.077,1.796c2.015,0.723,3.917,1.404,4.925,4.249c0.826,2.333,2.795,9.04,2.879,9.324
			c0.267,1.046,0.633,2.102,0.929,2.737c0.302-0.674,0.675-1.811,0.942-2.92c0.349-1.484,2.176-8.995,3.774-10.672l0.238-0.252
			c1.545-1.646,2.401-2.267,8.727-3.263l2.906-0.464c5.782-0.931,11.243-1.81,15.64-1.81c5.035,0,6.09,0.075,9.234,0.457
			c4.168,0.51,10.002,1.279,12.536,2.074c3.001,0.943,4.052,3.069,4.801,4.988c0.682,1.734,2.144,6.194,2.205,6.383l0.027,0.105
			c0.076,0.374,0.242,0.806,0.387,1.037c0.149-0.245,0.32-0.708,0.398-1.108l0.025-0.1c0.415-1.324,2.564-7.998,4.031-9.306
			l0.187-0.167c1.379-1.233,2.68-2.398,9.36-3.223c3.328-0.413,5.979-0.824,8.11-1.154c2.194-0.34,3.78-0.586,4.996-0.664
			c1.51-0.098,2.325-0.242,2.764-0.362c-0.819-0.249-2.438-0.469-3.055-0.554c-0.771-0.105-1.898-0.243-3.239-0.407
			c-4.463-0.546-11.207-1.371-15.243-2.248c-4.91-1.065-5.965-4.688-6.596-6.852c-0.11-0.38-0.211-0.73-0.323-1.03
			c-0.205-0.556-0.393-1.192-0.581-1.832c-0.26-0.885-0.734-2.498-1.105-2.846c-0.108,0.065-0.341,0.371-0.675,1.685
			c-0.057,0.222-0.106,0.413-0.153,0.551c-0.036,0.108-0.101,0.323-0.188,0.609c-0.463,1.527-1.427,4.704-2.238,5.995l-0.225,0.361
			c-0.833,1.357-1.871,3.045-5.502,3.744l-1.276,0.248c-3.851,0.753-9.671,1.893-15.318,2.029
			c-6.245,0.147-9.861-0.297-14.648-0.887l-0.197-0.024c-0.946-0.117-1.879-0.219-2.791-0.319c-3.817-0.42-7.423-0.817-10.29-2.093
			c-3.63-1.611-5.469-6.517-6.537-10.067c-0.555-1.855-0.925-2.843-1.167-3.367c-0.342,0.64-0.82,1.76-1.247,3.145l-0.152,0.504
			c-0.751,2.5-2.313,7.701-4.765,9.207c-2.44,1.491-6.271,2.351-13.666,3.069C172.152,115.632,166.746,116.328,164.646,116.964z"/>
	</g>
	<g>
		<path d="M259.335,127.796c-0.148,0.679-0.451,1.887-1.129,1.887c-0.682,0-0.911-0.754-1.21-1.736
			c-0.304-0.982-0.603-3.545-1.733-6.262c-1.135-2.716-6.035-3.019-9.505-3.319c-3.469-0.3-17.528-0.956-20.444-0.678
			c-0.403,0.038-1.116,0.054-2.034,0.116l-0.46,1.217c2.229-0.263,4.322-0.428,6.188-0.428c5.058,0,6.038,0.075,9.125,0.45
			c3.101,0.379,9.736,1.211,12.374,2.039c2.643,0.83,3.551,2.717,4.229,4.453c0.681,1.732,2.188,6.336,2.188,6.336
			s0.376,1.887,1.283,1.887c0.903,0,1.278-1.963,1.278-1.963L259.335,127.796z"/>
	</g>
	<g>
		<path d="M263.935,114.065c2.871,1.131,9.969,1.618,11.1,1.618c1.133,0,3.083-0.11,3.083,0.871c0,0.982-1.126,1.059-2.485,1.133
			l9.733,0.226c2.335-0.151,3.997-0.454,3.997-1.206c0-0.756-0.907-1.057-4.225-1.51c-3.318-0.452-13.201-1.51-18.412-2.642
			L263.935,114.065z"/>
	</g>
	<g>
		<path d="M259.335,106.672c-0.229-1.283-0.754-2.414-1.357-2.414c-0.603,0-1.131,1.434-1.359,2.491
			c-0.223,1.055-0.146,4.751-2.563,6.335c-2.412,1.585-5.058,2.231-13.438,2.687c-8.37,0.45-15.383,0.179-17.943,0.106l-0.087-1.01
			c2.847,0.28,5.742,0.426,9.743,0.33c6.261-0.151,12.898-1.583,16.445-2.261c3.541-0.681,4.223-2.265,5.131-3.698
			c0.902-1.434,2.109-5.734,2.335-6.412c0.229-0.68,0.524-2.868,1.735-2.868c1.209,0,1.733,3.245,2.484,5.282L259.335,106.672z"/>
	</g>
	<g>
		<path d="M203.736,111.34c0.33,0.241,0.685,0.448,1.057,0.61c3.396,1.512,7.922,1.736,12.823,2.341
			c4.904,0.604,8.453,1.055,14.714,0.905l0.052,0.737c-4.531,0.071-8.061-0.01-9.708-0.057c-2.569-0.077-15.92-0.454-20.144-1.888
			c-0.407-0.163-0.778-0.36-1.126-0.596L203.736,111.34z"/>
	</g>
	<g>
		<path d="M225.313,117.688c-2.489,0.073-16.373,1.283-20.067,1.508c-3.695,0.228-4.978,2.563-5.506,3.622
			c-0.532,1.055-2.037,8.374-2.19,8.977c-0.152,0.604-0.379,1.812-0.754,1.812v4.826c0.83,0,1.808-4.072,1.808-4.072
			s2.04-8.676,3.549-10.259c1.509-1.587,1.734-2.188,8.45-3.245c5.2-0.819,10.355-1.726,14.771-2.095L225.313,117.688z"/>
	</g>
	<g>
		<path d="M183.742,118.744c0,0,4.529,0.224,6.34,1.055c1.808,0.83,3.393,1.736,3.845,3.546c0.452,1.809,1.964,8.297,2.113,8.9
			s0.379,1.36,0.755,1.36c0.375,0,0.602-1.208,0.754-1.812l1.054,2.565c0,0-0.978,4.072-1.808,4.072
			c-0.831,0-1.812-3.847-1.812-3.847s-2.037-6.94-2.864-9.276c-0.83-2.339-2.266-2.942-4.376-3.699
			c-0.807-0.288-2.381-0.589-4.123-0.858L183.742,118.744z"/>
	</g>
	<g>
		<path d="M196.04,132.246c0.149,0.604,0.379,1.36,0.755,1.36c0.285,0,0.483-0.679,0.625-1.274l0.198,5.078
			c-0.268,0.588-0.549,1.022-0.823,1.022c-0.271,0-0.563-0.414-0.827-0.97L196.04,132.246z"/>
	</g>
	<g>
		<path d="M187.743,121.61c-2.113-0.754-9.507-1.585-11.395-1.811c-1.884-0.228-13.198-1.359-13.274-2.868
			c-0.073-1.508,13.729-2.563,13.729-2.563l0.379,1.432c-2.263,0.302-4.153,0.228-4.153,0.982c0,0.754,1.436,1.281,4.227,1.434
			c2.791,0.149,6.486,0.528,6.486,0.528s4.529,0.224,6.34,1.055L187.743,121.61z"/>
	</g>
	<g>
		<path d="M163.074,116.931c-0.073-1.508,13.729-2.563,13.729-2.563c7.015-0.681,10.939-1.508,13.278-2.94
			c2.336-1.434,3.925-7.244,4.526-9.207c0.604-1.96,1.581-4.223,2.109-4.223c0.532,0,1.134,1.434,2.037,4.451l-0.754,3.167
			c-0.452-2.715-0.678-3.395-1.355-3.395c-0.682,0-1.134,2.037-1.513,3.848c-0.375,1.811-0.938,6.818-4.521,7.92
			c-3.925,1.208-6.111,1.585-13.429,1.811c-2.263,0.302-4.153,0.228-4.153,0.982L163.074,116.931z"/>
	</g>
	<g>
		<path d="M202.53,113.989c-2.416-0.979-3.698-3.09-4.529-8.374c-0.452-2.715-0.678-3.396-1.355-3.396l0.072-4.223
			c0.532,0,1.134,1.434,2.037,4.451c0.907,3.017,2.642,7.995,6.038,9.501L202.53,113.989z"/>
	</g>
	<g>
		<path d="M196.252,102.466c0.119-0.156,0.251-0.245,0.394-0.245c0.201,0,0.364,0.061,0.497,0.217l0.059-4.077
			c-0.167-0.244-0.33-0.363-0.483-0.363c-0.146,0-0.33,0.175-0.528,0.476L196.252,102.466z"/>
	</g>
	<g>
		<path d="M173.776,117.597c-0.497-0.225-0.747-0.499-0.747-0.815c0-0.283,0.268-0.45,0.72-0.563l-8.61-0.314
			c-1.255,0.309-2.086,0.655-2.064,1.027c0.017,0.386,0.761,0.746,1.901,1.073L173.776,117.597z"/>
	</g>
	<g>
		<path d="M258.206,133.757c0.902,0,1.277-1.963,1.277-1.963s2.416-7.693,3.771-8.901c1.363-1.208,2.344-2.339,9.057-3.167
			c6.715-0.833,10.713-1.662,13.053-1.813c2.335-0.151,3.996-0.454,3.996-1.206l-11.244-0.153c0,0.982-1.126,1.059-2.485,1.133
			c-1.358,0.076-7.467,0.603-11.391,1.355c-3.925,0.756-4.757,8.075-4.905,8.754c-0.148,0.678-0.451,1.886-1.129,1.886V133.757
			L258.206,133.757z"/>
	</g>
	<g>
		<path d="M269.176,115.129c-2.002-0.24-4.021-0.582-5.241-1.063c-2.863-1.13-3.922-3.094-4.6-7.394
			c-0.229-1.283-0.754-2.414-1.357-2.414c-0.603,0-1.131,1.434-1.359,2.491l-0.376-3.923c0.229-0.68,0.524-2.868,1.735-2.868
			c1.209,0,1.733,3.245,2.484,5.282c0.761,2.037,1.063,6.188,6.264,7.315c0.952,0.207,2.051,0.41,3.239,0.61L269.176,115.129z"/>
	</g>
	<g>
		<path d="M256.961,100.693c0.236-0.422,0.563-0.735,1.017-0.735c0.332,0,0.614,0.245,0.86,0.646l0.202,4.941
			c-0.012-0.028-0.023-0.057-0.031-0.083c-0.265-0.709-0.629-1.205-1.031-1.205c-0.41,0-0.783,0.66-1.051,1.411L256.961,100.693z"/>
	</g>
	<g>
		<path d="M287.651,117.663c1.063-0.191,1.709-0.485,1.709-0.956c0-0.5-0.396-0.803-1.645-1.081l-10.611,0.073
			c0.58,0.12,1.012,0.367,1.012,0.855c0,0.278-0.088,0.483-0.247,0.636L287.651,117.663z"/>
	</g>
	<g>
		<path d="M259.335,127.796c-0.148,0.679-0.451,1.887-1.129,1.887c-0.682,0-0.911-0.754-1.21-1.736l-0.073,3.924
			c0,0,0.376,1.855,1.283,1.887c1.129,0.037,1.691-3.321,1.691-3.321L259.335,127.796z"/>
	</g>
	<g>
		<path d="M271.217,90.611c-5.055-0.01-11.692,1.229-18.409,2.305c-6.713,1.078-6.938,1.691-8.442,3.304
			c-1.517,1.617-3.55,10.453-3.55,10.453s-0.979,4.15-1.812,4.15s-1.812-3.919-1.812-3.919s-2.036-7.07-2.863-9.453
			c-0.835-2.381-2.264-2.996-4.377-3.768c-2.116-0.767-9.508-1.611-11.395-1.842c-1.885-0.229-13.199-1.384-13.274-2.92
			c-0.073-1.537,13.729-2.611,13.729-2.611c7.012-0.693,10.938-1.54,13.274-2.998c2.343-1.46,3.925-7.379,4.528-9.376
			c0.603-1.997,1.582-4.301,2.11-4.301c0.531,0,1.138,1.456,2.037,4.533c0.907,3.074,2.638,8.147,6.037,9.682
			c3.394,1.535,7.926,1.768,12.823,2.383c0,0,5.851,1.13,12.033,0.977c6.188-0.149,10.035-1.207,12.451-1.583
			c2.412-0.377,6.938-1.133,8.367-4.451c1.437-3.318,2.867-8.147,3.928-8.223c1.054-0.073,2.711,5.282,2.711,5.282
			s1.207,5.205,5.285,6.109c4.069,0.906,10.485,2.416,13.807,2.866c3.314,0.455,4.372,0.756,4.372,1.662
			c0,0.903-4.445,1.357-4.445,1.357s-11.999,1.356-14.412,2.866c-2.415,1.509-3.851,2.565-5.662,10.713
			c-0.678,2.114-0.827,3.092-1.509,3.092c-0.678,0-1.811-3.395-3.166-8.071c-1.355-4.675-2.488-5.958-9.205-6.94
			C277.661,90.906,274.804,90.62,271.217,90.611z"/>
		<path d="M239.004,111.729c-0.461,0-1.539,0-2.689-4.605c-0.013-0.04-2.031-7.043-2.841-9.375c-0.697-1.988-1.793-2.47-3.832-3.214
			c-1.841-0.667-8.214-1.435-10.613-1.724l-1.243-0.147c-12.32-1.412-13.346-2.466-13.406-3.697
			c-0.04-0.845-0.115-2.416,14.563-3.558c6.98-0.69,10.713-1.52,12.865-2.863c1.865-1.163,3.4-6.362,3.978-8.319l0.164-0.55
			c1.491-4.945,2.57-4.945,2.977-4.945c1.092,0,1.717,1.114,2.906,5.185c0.556,1.884,2.25,7.625,5.541,9.111
			c2.61,1.181,6.089,1.571,9.771,1.984c0.914,0.103,1.847,0.207,2.792,0.326c0.117,0.021,5.903,1.125,11.898,0.97
			c4.697-0.113,7.997-0.753,10.406-1.22c0.727-0.141,1.365-0.265,1.928-0.352c2.084-0.326,6.422-1.003,7.675-3.915
			c0.406-0.937,0.817-2.012,1.215-3.052c1.452-3.796,2.206-5.625,3.48-5.716c0.013,0,0.025,0,0.038,0
			c0.574,0,1.811,0.128,3.603,5.917c0.027,0.108,1.153,4.725,4.616,5.493l2.249,0.505c3.904,0.882,8.764,1.979,11.483,2.348
			c2.993,0.411,5.155,0.708,5.155,2.559c0,0.515,0,1.72-5.259,2.258c-4.731,0.535-12.382,1.705-14.023,2.732
			c-2.176,1.359-3.488,2.18-5.259,10.142c-0.142,0.455-0.245,0.794-0.338,1.097c-0.479,1.57-0.825,2.704-2.055,2.704
			c-1.048,0-1.746-0.825-4.035-8.724c-1.262-4.349-2.13-5.37-8.467-6.296c-6.745-0.987-9.547-1.26-13.032-1.269
			c-4.267,0-9.593,0.875-15.232,1.8c-1.005,0.165-2.018,0.331-3.031,0.494c-6.027,0.968-6.51,1.493-7.678,2.761l-0.246,0.267
			c-0.984,1.05-2.564,6.714-3.33,10.039C240.553,111.729,239.468,111.729,239.004,111.729z M206.804,88.954
			c1.168,0.424,4.06,1.093,11.188,1.91l1.254,0.148c4.18,0.503,9.21,1.165,11.016,1.82c2.362,0.863,3.979,1.629,4.923,4.32
			c0.826,2.381,2.795,9.212,2.879,9.501c0.267,1.063,0.631,2.138,0.929,2.789c0.303-0.689,0.677-1.847,0.943-2.977
			c0.348-1.51,2.168-9.156,3.771-10.864l0.236-0.256c1.543-1.676,2.397-2.307,8.723-3.323c1.012-0.162,2.022-0.328,3.025-0.493
			c5.714-0.938,11.111-1.824,15.468-1.824c3.649,0.009,6.506,0.286,13.352,1.288c7.081,1.035,8.483,2.546,9.943,7.584
			c1.197,4.127,1.901,6.077,2.317,6.951c0.098-0.283,0.203-0.63,0.303-0.955c0.095-0.311,0.2-0.658,0.323-1.042
			c1.827-8.236,3.33-9.508,6.045-11.205c2.514-1.573,13.541-2.856,14.79-2.998c1.279-0.131,2.598-0.388,3.309-0.624
			c-0.761-0.256-2.515-0.497-3.257-0.599c-2.796-0.379-7.698-1.486-11.637-2.375l-2.244-0.504c-4.581-1.016-5.915-6.553-5.97-6.788
			c-0.556-1.786-1.325-3.619-1.811-4.351c-0.525,0.803-1.319,2.879-1.872,4.325c-0.404,1.058-0.823,2.151-1.243,3.123
			c-1.648,3.828-6.653,4.61-9.059,4.986c-0.544,0.084-1.16,0.205-1.862,0.34c-2.473,0.48-5.858,1.137-10.707,1.253
			c-6.197,0.151-11.999-0.95-12.227-0.993c-0.879-0.108-1.804-0.212-2.71-0.314c-3.828-0.429-7.443-0.835-10.314-2.133
			c-3.627-1.638-5.465-6.635-6.532-10.25c-0.552-1.887-0.922-2.895-1.166-3.431c-0.344,0.654-0.821,1.795-1.246,3.204l-0.161,0.539
			c-1.197,4.06-2.604,8.002-4.756,9.344c-2.438,1.522-6.27,2.4-13.664,3.13C214.319,87.583,208.861,88.302,206.804,88.954z"/>
	</g>
	<g>
		<path d="M264.998,87.908c-2.572-0.078-15.986-0.46-20.229-1.915c-0.41-0.166-0.783-0.365-1.135-0.61l2.348-2.08
			c0.33,0.243,0.682,0.452,1.057,0.622c3.413,1.533,7.957,1.761,12.886,2.374"/>
	</g>
	<g>
		<path d="M267.649,89.747c-2.502,0.077-16.444,1.304-20.16,1.533c-3.706,0.229-4.999,2.604-5.53,3.678
			c-0.532,1.071-2.041,8.504-2.197,9.118c-0.151,0.61-0.382,1.837-0.758,1.837v4.905c0.834,0,1.821-4.136,1.821-4.136
			s2.041-8.812,3.56-10.421c1.517-1.607,1.741-2.219,8.488-3.293c5.226-0.833,10.403-1.755,14.833-2.127L267.649,89.747z"/>
	</g>
	<g>
		<path d="M225.896,90.821c0,0,4.547,0.226,6.36,1.07c1.825,0.843,3.414,1.764,3.865,3.603c0.459,1.837,1.972,8.428,2.124,9.04
			c0.148,0.612,0.379,1.378,0.758,1.378c0.376,0,0.605-1.227,0.758-1.837l1.063,2.605c0,0-0.987,4.136-1.821,4.136
			s-1.816-3.909-1.816-3.909s-2.049-7.046-2.875-9.422c-0.842-2.375-2.28-2.989-4.4-3.756c-0.807-0.293-2.389-0.596-4.141-0.873
			L225.896,90.821z"/>
	</g>
	<g>
		<path d="M238.246,104.534c0.149,0.612,0.379,1.378,0.758,1.378c0.289,0,0.486-0.686,0.626-1.29l0.205,5.155
			c-0.271,0.596-0.557,1.039-0.831,1.039c-0.271,0-0.56-0.419-0.831-0.987L238.246,104.534z"/>
	</g>
	<g>
		<path d="M229.911,93.73c-2.121-0.766-9.549-1.609-11.443-1.839c-1.895-0.231-13.258-1.378-13.338-2.911
			c-0.08-1.533,13.793-2.605,13.793-2.605l0.379,1.455c-2.275,0.308-4.164,0.233-4.164,0.996c0,0.769,1.437,1.304,4.241,1.458
			c2.806,0.155,6.519,0.537,6.519,0.537s4.545,0.226,6.359,1.07L229.911,93.73z"/>
	</g>
	<g>
		<path d="M205.13,88.98c-0.08-1.533,13.793-2.605,13.793-2.605c7.046-0.69,10.988-1.531,13.334-2.988
			c2.357-1.457,3.945-7.354,4.555-9.349c0.604-1.99,1.584-4.29,2.119-4.29c0.528,0,1.142,1.457,2.045,4.522l-0.759,3.217
			c-0.454-2.758-0.681-3.45-1.362-3.45c-0.685,0-1.14,2.072-1.516,3.909c-0.382,1.839-0.949,6.922-4.547,8.045
			c-3.941,1.223-6.139,1.607-13.49,1.837c-2.275,0.308-4.164,0.233-4.164,0.996L205.13,88.98z"/>
	</g>
	<g>
		<path d="M244.769,85.993c-2.431-0.998-3.713-3.143-4.552-8.504c-0.454-2.758-0.681-3.45-1.362-3.45l0.076-4.29
			c0.528,0,1.142,1.457,2.045,4.522c0.906,3.064,2.651,8.118,6.063,9.653L244.769,85.993z"/>
	</g>
	<g>
		<path d="M267.649,89.747c-2.502,0.063-16.444,1.304-20.16,1.533c-3.706,0.229-4.999,2.604-5.53,3.678
			c-0.532,1.071-2.041,8.504-2.197,9.118c-0.151,0.61-0.382,1.837-0.758,1.837c-0.379,0-0.608-0.766-0.758-1.378
			c-0.152-0.612-1.665-7.203-2.124-9.04c-0.451-1.839-2.04-2.76-3.865-3.603c-1.814-0.844-6.359-1.07-6.359-1.07
			s-3.713-0.382-6.519-0.537c-2.806-0.155-4.241-0.69-4.241-1.458c0-0.763,1.889-0.688,4.164-0.996
			c7.352-0.229,9.549-0.614,13.49-1.837c3.598-1.123,4.165-6.207,4.547-8.045c0.376-1.837,0.831-3.909,1.516-3.909
			c0.683,0,0.908,0.691,1.362,3.45c0.839,5.362,2.121,7.507,4.552,8.504c4.244,1.455,17.657,1.837,20.229,1.915
			c0,0,7.994,0.13,12.138-0.096c4.154-0.228,11.475-0.98,13.129-1.355c1.658-0.38,3.998-1.286,4.453-4.001
			c0.452-2.715,1.131-5.81,1.961-5.81c0.827,0,1.282,2.339,1.432,2.942c0,0,0.63,5.216,3.592,6.287
			c2.969,1.067,7.477,1.423,9.318,1.542c1.843,0.118,3.438,0.476,3.438,1.305c0,0.833-2.37,1.364-3.379,1.364
			c-1.004,0-6.229,0.179-8.071,1.01c-1.839,0.833-3.443,1.425-4.152,4.986c-0.713,3.561-1.071,4.749-1.071,4.749
			s-0.114,1.482-1.063,1.482c-0.955,0-1.191-1.9-1.191-1.9s-1.126-5.579-1.896-6.825c-0.771-1.246-1.663-3.027-8.964-3.262
			C277.365,90.086,274.133,89.583,267.649,89.747z"/>
	</g>
	<g>
		<path d="M298.854,96.082c0.709-3.561,2.313-4.154,4.152-4.986c1.844-0.831,7.067-1.01,8.071-1.01c1.009,0,3.379-0.532,3.379-1.364
			l8.321,0.148c0,0.903-4.445,1.357-4.445,1.357s-11.999,1.356-14.412,2.866c-1.811,1.131-3.072,2.007-4.352,5.813L298.854,96.082z"
			/>
	</g>
	<g>
		<path d="M301.701,85.875c2.969,1.067,7.477,1.423,9.319,1.542c1.842,0.118,3.438,0.476,3.438,1.305
			c0,0.833-2.37,1.364-3.379,1.364l7.255,0.141c0,0,4.444-0.454,4.444-1.357c0-0.906-1.057-1.207-4.371-1.662
			c-3.32-0.45-9.736-1.96-13.807-2.866L301.701,85.875z"/>
	</g>
	<g>
		<path d="M305.205,86.754c-1.237-0.221-2.465-0.506-3.504-0.879c-2.962-1.071-3.591-6.287-3.591-6.287
			c-0.149-0.603-0.604-2.942-1.433-2.942c-0.831,0-1.509,3.095-1.961,5.81l-2.04-1.283c1.436-3.318,2.867-8.147,3.928-8.223
			c1.054-0.073,2.711,5.282,2.711,5.282s1.207,5.205,5.285,6.109c0.67,0.149,1.418,0.316,2.195,0.496L305.205,86.754z"/>
	</g>
	<g>
		<path d="M296.604,72.951c-1.061,0.075-2.491,4.905-3.928,8.223c-1.429,3.318-5.955,4.074-8.367,4.451
			c-2.416,0.377-6.264,1.434-12.451,1.583c-6.184,0.153-12.033-0.977-12.033-0.977l-0.865,1.441
			c2.788,0.143,5.109,0.208,6.038,0.236c0,0,7.994,0.13,12.138-0.096c4.154-0.228,11.475-0.98,13.129-1.355
			c1.658-0.38,3.998-1.286,4.453-4.001c0.452-2.715,1.131-5.81,1.961-5.81L296.604,72.951z"/>
	</g>
	<g>
		<path d="M295.99,77.355c0.215-0.443,0.444-0.709,0.688-0.709c0.284,0,0.521,0.271,0.716,0.652v-3.676
			c-0.273-0.422-0.55-0.69-0.789-0.671c-0.242,0.016-0.496,0.275-0.771,0.704L295.99,77.355z"/>
	</g>
	<g>
		<path d="M300.092,97.513c-0.602,1.44-1.188,3.429-1.832,6.293c-0.678,2.114-0.827,3.092-1.509,3.092
			c-0.364,0-0.854-0.979-1.445-2.609l0.223-3.876c0,0,0.236,1.9,1.191,1.9c0.949,0,1.063-1.482,1.063-1.482s0.358-1.188,1.071-4.749
			c0.148-0.763,0.344-1.389,0.568-1.91L300.092,97.513z"/>
	</g>
	<g>
		<path d="M294.76,97.017c-0.358-1.418-0.778-2.864-1.127-3.429c-0.771-1.246-1.664-3.027-8.964-3.262
			c-7.304-0.24-10.536-0.742-17.02-0.579c-0.868,0.021-3.11,0.184-5.821,0.396l0.149,1.307c3.381-0.494,6.537-0.845,9.238-0.839
			c3.587,0.009,6.444,0.295,13.163,1.276c6.716,0.982,7.849,2.265,9.205,6.94L294.76,97.017z"/>
	</g>
	<g>
		<path d="M293.995,94.396c0.716,1.972,1.531,6.017,1.531,6.017s0.236,1.9,1.192,1.9l0.031,4.585c-0.678,0-1.812-3.395-3.166-8.071
			c-0.296-1.008-0.574-1.862-0.907-2.586L293.995,94.396z"/>
	</g>
	<g>
		<path d="M207.251,90.126c-1.255-0.348-2.097-0.732-2.121-1.146c-0.017-0.398,0.9-0.765,2.273-1.088l9.033,0.254
			c-0.799,0.116-1.3,0.287-1.3,0.679c0,0.268,0.171,0.508,0.521,0.713L207.251,90.126z"/>
	</g>
	<g>
		<path d="M238.458,74.289c0.122-0.16,0.254-0.25,0.396-0.25c0.201,0,0.364,0.063,0.504,0.221l0.053-4.14
			c-0.167-0.247-0.327-0.37-0.48-0.37c-0.152,0-0.332,0.181-0.535,0.485L238.458,74.289z"/>
	</g>
	<g>
		<path d="M100.043,57.674l-16.521,2.263c0,0-2.944,0.113-2.944,1.247c0,1.131,2.493,1.131,3.396,1.244
			c0.907,0.113,18.558,2.489,18.558,2.489s28.18,3.848,30.892,4.3c2.718,0.454,10.299,1.471,13.581,4.415
			c3.282,2.941,6.111,9.278,8.148,18.67c2.034,9.394,4.185,17.427,4.185,17.427s0.341,2.828,1.467,2.828
			c1.141,0,1.478-2.941,1.478-2.941s5.544-22.066,6.903-25.914c1.355-3.846,3.281-11.996,15.614-13.918
			c12.333-1.924,35.307-4.526,35.307-4.526s22.406-2.717,30.105-2.265c7.688,0.454,16.292,1.585,18.443,1.924
			c2.147,0.341,5.617,0.716,7.13,4.489c1.505,3.771,3.166,10.863,3.166,10.863s0.528,2.188,1.356,2.188
			c0.829,0,1.357-2.037,1.357-2.037s2.488-8.6,3.396-10.788c0.906-2.19,2.717-4.072,9.431-4.905
			c6.715-0.831,13.807-2.337,13.807-2.337s3.394-0.075,3.394-1.359c0-1.283-3.623-1.355-3.623-1.355l-15.392-2.491
			c0,0-6.185-0.452-7.766-4.526c-1.585-4.074-3.247-8.526-3.247-8.526s-0.303-1.81-1.206-1.81c-0.907,0-1.358,2.187-1.358,2.187
			s-1.812,6.262-3.244,8.299c-1.432,2.037-3.166,4.074-10.785,4.829c-7.619,0.754-11.616,1.583-14.635,1.66
			c-3.021,0.076-9.283,0.076-14.262-0.527c-4.975-0.603-37.19-4.527-37.19-4.527s-12.899-1.434-16.977-2.791
			c-4.07-1.357-10.035-1.585-14.634-15.995c-4.603-14.408-4.901-15.465-4.901-15.465s-0.383-2.638-1.669-2.638
			c-1.272,0-1.651,2.94-1.651,2.94s-5.134,16.675-7.55,21.652c-2.413,4.978-4.147,9.656-24.287,11.919
			C109.435,56.204,100.043,57.674,100.043,57.674z"/>
		<path d="M160.805,113.462c-1.747,0-2.24-2.642-2.358-3.56c-0.203-0.762-2.256-8.527-4.179-17.409
			c-1.961-9.043-4.682-15.332-7.867-18.187c-2.831-2.539-9.542-3.619-12.408-4.08l-0.718-0.117
			c-2.668-0.444-30.583-4.257-30.865-4.296c-0.175-0.023-17.656-2.376-18.548-2.488c-0.129-0.016-0.294-0.03-0.48-0.045
			c-1.296-0.107-3.708-0.308-3.708-2.097c0-1.861,2.919-2.118,3.814-2.152l16.433-2.255c0.077-0.012,9.591-1.496,27.279-3.809
			c19.123-2.149,21.199-6.457,23.397-11.018l0.193-0.398c2.279-4.696,7.11-20.265,7.477-21.453c0.109-0.771,0.643-3.649,2.538-3.649
			c1.902,0,2.445,2.65,2.555,3.347c0.1,0.333,0.783,2.567,4.878,15.386c3.977,12.462,8.817,13.869,12.706,15
			c0.469,0.136,0.921,0.268,1.352,0.412c3.94,1.311,16.663,2.736,16.791,2.75c0.009,0.001,32.225,3.925,37.199,4.528
			c3.986,0.483,8.722,0.555,11.189,0.555c1.146,0,2.154-0.015,2.94-0.035c1.539-0.039,3.354-0.282,5.865-0.618
			c2.263-0.302,5.077-0.679,8.703-1.038c7.531-0.747,8.914-2.713,10.134-4.449c1.104-1.57,2.622-6.329,3.114-8.03
			c0.124-0.614,0.702-2.84,2.229-2.84c1.497,0,1.973,1.896,2.083,2.474c0.225,0.603,1.752,4.682,3.214,8.439
			c1.353,3.486,6.933,3.947,6.989,3.951l15.407,2.49c1.389,0.035,4.445,0.331,4.445,2.259c0,1.958-3.101,2.228-4.192,2.262
			c-0.814,0.17-7.513,1.554-13.802,2.333c-6.716,0.833-8.015,2.684-8.705,4.353c-0.879,2.117-3.339,10.608-3.363,10.693
			c-0.205,0.792-0.847,2.691-2.228,2.691c-1.391,0-2.027-2.015-2.236-2.881c-0.018-0.076-1.665-7.076-3.127-10.74
			c-1.254-3.126-4.075-3.564-6.136-3.884l-0.295-0.046c-2.251-0.354-10.783-1.467-18.355-1.914
			c-7.551-0.445-29.736,2.234-29.942,2.26c-0.237,0.027-23.104,2.623-35.276,4.522c-10.979,1.711-13.257,8.465-14.618,12.501
			c-0.098,0.292-0.191,0.567-0.281,0.823c-1.297,3.671-6.552,24.537-6.865,25.778C163.061,110.723,162.573,113.462,160.805,113.462z
			 M81.688,61.188c0.495,0.176,1.475,0.258,1.843,0.288c0.215,0.018,0.405,0.034,0.555,0.053c0.9,0.113,17.846,2.394,18.566,2.49
			c1.153,0.158,28.226,3.855,30.92,4.304l0.708,0.115c3.279,0.527,10.103,1.625,13.329,4.519c3.471,3.111,6.386,9.733,8.428,19.152
			c2.006,9.266,4.153,17.305,4.175,17.385l0.024,0.125c0.092,0.754,0.344,1.588,0.565,1.928c0.228-0.357,0.492-1.252,0.582-2.035
			l0.021-0.118c0.227-0.903,5.57-22.151,6.927-25.995c0.087-0.249,0.178-0.517,0.273-0.8c1.394-4.135,3.99-11.832,16.055-13.711
			c12.21-1.905,35.114-4.505,35.344-4.531c0.185-0.022,19.246-2.321,28.189-2.321c0.768,0,1.464,0.017,2.07,0.052
			c7.64,0.451,16.257,1.575,18.531,1.933l0.29,0.045c2.207,0.343,5.901,0.916,7.54,5.001c1.513,3.792,3.139,10.701,3.207,10.993
			c0.113,0.465,0.314,0.985,0.488,1.294c0.166-0.281,0.357-0.746,0.468-1.165c0.108-0.376,2.52-8.697,3.437-10.907
			c0.95-2.297,2.839-4.548,10.155-5.456c6.6-0.817,13.659-2.309,13.729-2.324l0.168-0.02c0.924-0.022,1.947-0.221,2.372-0.442
			c-0.459-0.231-1.585-0.44-2.6-0.461l-0.126-0.012l-15.392-2.491c-0.197-0.011-6.697-0.537-8.465-5.092
			c-1.587-4.079-3.252-8.537-3.252-8.537l-0.044-0.167c-0.056-0.32-0.185-0.692-0.305-0.913c-0.175,0.288-0.378,0.834-0.48,1.324
			c-0.093,0.329-1.888,6.5-3.391,8.636c-1.684,2.396-3.707,4.443-11.437,5.209c-3.594,0.356-6.393,0.73-8.641,1.031
			c-2.567,0.343-4.423,0.591-6.06,0.633c-0.799,0.02-1.821,0.035-2.986,0.035c-2.509,0-7.326-0.074-11.407-0.568
			c-4.976-0.603-37.191-4.527-37.191-4.527c-0.521-0.058-13.032-1.459-17.153-2.831c-0.411-0.137-0.84-0.261-1.286-0.391
			c-4.075-1.185-9.655-2.807-13.925-16.188c-4.556-14.259-4.898-15.451-4.91-15.494l-0.024-0.115
			c-0.136-0.911-0.545-1.801-0.773-1.864c-0.234,0.126-0.633,1.215-0.753,2.15l-0.033,0.151c-0.21,0.684-5.182,16.798-7.601,21.781
			l-0.19,0.394c-2.421,5.024-4.708,9.77-24.81,12.029c-17.646,2.307-27.14,3.788-27.234,3.802l-16.538,2.266
			C82.885,60.868,82.097,61.02,81.688,61.188z"/>
	</g>
	<g>
		<path d="M149.809,69.706c-2.263-1.62-4.783-2.195-7.105-2.638c-5.314-1.021-25.573-3.057-25.573-3.057l-20.029-1.696
			c0,0-3.852-0.341-3.852-1.245c0-0.905,3.852-1.02,3.852-1.02l-13.581-0.113c0,0-2.944,0.113-2.944,1.247
			c0,1.131,2.493,1.131,3.396,1.244c0.907,0.113,18.558,2.489,18.558,2.489s28.18,3.848,30.892,4.3
			c2.718,0.454,10.299,1.471,13.581,4.415L149.809,69.706z"/>
	</g>
	<g>
		<path d="M162.473,19.99c0,0-0.383-2.638-1.669-2.638c-1.272,0-1.651,2.94-1.651,2.94s-5.134,16.675-7.55,21.652
			c-2.413,4.978-4.147,9.656-24.287,11.919c-17.881,2.339-27.273,3.81-27.273,3.81l-16.521,2.263c0,0-2.944,0.113-2.944,1.247
			l12.674-0.113c0-0.905,3.852-1.02,3.852-1.02l15.162-1.357c0,0,17.203-1.417,25.462-2.263c8.259-0.85,14.37-5.488,16.629-10.185
			c2.266-4.696,4.814-19.066,4.814-19.066s0.448-4.641,1.633-4.641c1.196,0,1.533,4.526,1.533,4.526L162.473,19.99z"/>
	</g>
	<g>
		<path d="M195.647,53.838c-4.112-0.521-10.887-1.47-13.64-2.388c-4.07-1.357-10.035-1.585-14.634-15.995
			c-4.603-14.408-4.901-15.465-4.901-15.465s-0.383-2.638-1.669-2.638c-1.271,0-1.651,2.94-1.651,2.94l0.018,6.886
			c0,0,0.448-4.641,1.633-4.641c0.793,0,1.21,1.978,1.401,3.318c0.094,0.688,0.143,1.125,0.143,1.125s0.056,0.362,0.167,0.852
			c0.612,2.717,2.714,11.9,3.674,15.639c1.126,4.415,4.24,8.94,9.273,11.035c5.037,2.094,17.092,2.83,19.24,2.885L195.647,53.838z"
			/>
	</g>
	<g>
		<path d="M159.799,23.911c0.25-0.77,0.584-1.373,1.004-1.373c0.449,0,0.772,0.621,1.001,1.404l0.094-5.754
			c-0.254-0.466-0.605-0.836-1.095-0.836c-0.445,0-0.782,0.363-1.029,0.836L159.799,23.911z"/>
	</g>
	<g>
		<path d="M281.707,49.603c-0.306-1.585-0.49-2.982-1.248-2.982s-1.099,1.849-1.319,3.021c-0.228,1.168-0.939,6.147-2.904,7.467
			c-1.963,1.321-5.734,2.299-10.185,2.527c-4.45,0.229-13.845,0.604-16.372,0.604l0.758-0.942c3.019-0.077,7.016-0.905,14.635-1.66
			c7.619-0.754,9.354-2.792,10.785-4.829c1.434-2.037,3.244-8.299,3.244-8.299s0.451-2.187,1.358-2.187
			c0.904,0,1.206,1.81,1.206,1.81L281.707,49.603z"/>
	</g>
	<g>
		<path d="M288.103,58.682c1.621,0.361,3.323,0.474,4.575,0.575c2.339,0.189,7.21,0.719,7.21,0.719s2.717,0.224,2.717,1.017
			c0,0.792-2.605,1.095-2.605,1.095l8.301,0.301c0,0,3.393-0.075,3.393-1.359c0-1.283-3.621-1.355-3.621-1.355l-15.393-2.491
			c0,0-0.682-0.048-1.654-0.268L288.103,58.682z"/>
	</g>
	<g>
		<path d="M284.567,65.142c-1.696,1.47-2.256,6.186-2.412,7.093c-0.149,0.905-0.827,3.921-0.827,3.921s-0.265,1.474-0.827,1.474
			l-0.193,4.826c0.829,0,1.357-2.037,1.357-2.037s2.489-8.6,3.396-10.788c0.295-0.718,0.69-1.404,1.323-2.03L284.567,65.142z"/>
	</g>
	<g>
		<path d="M160.804,106.22c1.366,0,1.478-3.058,1.478-3.058s2.947-17.992,3.393-20.14c0.452-2.15,1.922-9.393,5.089-12.109
			l3.428,3.657c-3.209,3.099-4.206,6.862-5.006,9.13c-1.359,3.848-6.903,25.914-6.903,25.914s-0.337,2.941-1.478,2.941
			L160.804,106.22L160.804,106.22z"/>
	</g>
	<g>
		<path d="M162.281,103.163c0,0-0.111,3.058-1.479,3.058c-1.352,0-1.352-3.058-1.352-3.058s-1.244-6.674-3.167-20.027
			c-1.929-13.353-8.263-15.051-13.581-16.068l-0.792,3.971c1.988,0.633,3.848,1.474,5.092,2.591
			c3.282,2.941,6.111,9.278,8.148,18.67c2.034,9.394,4.185,17.427,4.185,17.427s0.341,2.828,1.467,2.828
			c1.141,0,1.479-2.941,1.479-2.941V103.163z"/>
	</g>
	<g>
		<path d="M159.646,111.135c0.226,0.709,0.594,1.42,1.157,1.42c0.518,0,0.873-0.61,1.103-1.276l0.045-6.231
			c-0.216,0.627-0.567,1.172-1.147,1.172c-0.604,0-0.945-0.623-1.126-1.304L159.646,111.135z"/>
	</g>
	<g>
		<path d="M97.103,62.314c0,0-3.852-0.341-3.852-1.245c0-0.905,3.852-1.02,3.852-1.02l-13.581-0.113c0,0-2.944,0.113-2.944,1.247
			c0,1.131,2.493,1.131,3.396,1.244L97.103,62.314z"/>
	</g>
	<g>
		<path d="M173.818,74.943c2.235-2.319,5.628-4.326,10.98-5.16c12.333-1.924,35.307-4.526,35.307-4.526s11.662-1.413,21.047-2.032
			l0.119-1.364c-4.416,0-35.424,2.716-50.136,3.733c-14.711,1.019-17.196,2.604-20.373,5.32L173.818,74.943z"/>
	</g>
	<g>
		<path d="M274.592,67.433c-1.728-1.957-4.243-2.25-5.938-2.517c-2.151-0.339-10.755-1.47-18.443-1.924
			c-2.614-0.153-6.917,0.057-11.471,0.403l-0.149-1.423c1.227-0.073,2.147-0.111,2.68-0.111c4.408,0,10.979,0,17.086,0.454
			c6.109,0.452,13.24,0.565,16.521,2.037c0.751,0.343,1.353,0.934,1.832,1.645L274.592,67.433z"/>
	</g>
	<g>
		<path d="M274.153,66.988c0.649,0.594,1.214,1.376,1.631,2.417c1.505,3.771,3.166,10.863,3.166,10.863s0.527,2.188,1.355,2.188
			c0.83,0,1.358-2.037,1.358-2.037l-0.337-4.263c0,0-0.264,1.474-0.827,1.474c-0.569,0-0.683-0.793-0.907-1.474
			c-0.232-0.678-0.646-2.868-0.869-3.883c-0.19-0.85-0.615-4.817-2.517-6.924L274.153,66.988z"/>
	</g>
	<g>
		<path d="M278.95,80.268c0,0,0.527,2.188,1.355,2.188c0.83,0,1.358-2.037,1.358-2.037l-0.337-4.263c0,0-0.264,1.474-0.827,1.474
			c-0.569,0-0.683-0.793-0.907-1.474L278.95,80.268z"/>
	</g>
	<g>
		<path d="M286.015,68.008c0.129-0.158,0.271-0.309,0.428-0.458c1.304-1.258,3.594-2.27,8.051-2.823
			c6.715-0.831,13.807-2.337,13.807-2.337s3.393-0.075,3.393-1.359l-9.086-0.036c0,0.792-2.606,1.095-2.606,1.095
			s-2.374,0.603-6.827,0.904c-4.449,0.302-6.902,0.68-8.604,2.15c-0.094,0.083-0.185,0.177-0.271,0.28L286.015,68.008z"/>
	</g>
	<g>
		<path d="M301.381,60.22c0.626,0.156,1.224,0.401,1.224,0.773c0,0.255-0.273,0.458-0.64,0.619l9.125,0.212
			c0.354-0.193,0.603-0.45,0.603-0.794c0-0.747-1.234-1.084-2.26-1.234L301.381,60.22z"/>
	</g>
	<g>
		<path d="M280.459,46.62c0.758,0,0.942,1.397,1.248,2.982c0.299,1.583,0.751,5.619,2.75,7.43c1.063,0.959,2.651,1.472,4.261,1.772
			l2.973-1.755c-1.817-0.318-5.592-1.338-6.777-4.392c-1.585-4.074-3.247-8.526-3.247-8.526s-0.302-1.81-1.206-1.81L280.459,46.62
			L280.459,46.62z"/>
	</g>
	<g>
		<path d="M279.813,42.732c0.178-0.243,0.396-0.41,0.646-0.41c0.296,0,0.528,0.195,0.706,0.457l-0.028,4.442
			c-0.163-0.375-0.372-0.601-0.678-0.601c-0.285,0-0.511,0.262-0.69,0.648L279.813,42.732z"/>
	</g>
	<g>
		<path d="M256.662,58.635c-2.652,0.355-4.585,0.619-6.226,0.661c-3.021,0.076-9.285,0.076-14.263-0.527
			c-4.975-0.603-37.19-4.527-37.19-4.527s-1.953-0.217-4.581-0.563l-0.098,3.77c2.148,0.056,32.289,2.187,37.082,2.414
			c4.787,0.228,15.765,0.375,18.291,0.375c1.23,0,4.085-0.088,7.206-0.205L256.662,58.635z"/>
	</g>
	<g>
		<path d="M295.526,100.413c0,0,0.236,1.9,1.192,1.9c0.949,0,1.063-1.482,1.063-1.482l0.477,2.975
			c-0.678,2.114-0.826,3.092-1.509,3.092c-0.364,0-0.854-0.979-1.445-2.609L295.526,100.413z"/>
	</g>
	<g>
		<path d="M112.265,58.692L97.103,60.05c0,0-3.852,0.115-3.852,1.02c0,0.904,3.852,1.245,3.852,1.245l20.029,1.696
			c0,0,20.258,2.037,25.573,3.057c5.318,1.017,11.652,2.715,13.581,16.068c1.922,13.354,3.167,20.027,3.167,20.027
			s0,3.058,1.352,3.058c1.366,0,1.478-3.058,1.478-3.058s2.947-17.992,3.393-20.14c0.452-2.15,1.922-9.393,5.089-12.109
			c3.177-2.717,5.662-4.302,20.373-5.32c14.711-1.017,45.72-3.733,50.134-3.733c4.408,0,10.979,0,17.086,0.454
			c6.109,0.452,13.24,0.565,16.521,2.037c3.056,1.394,3.618,6.903,3.849,7.922c0.223,1.015,0.635,3.205,0.868,3.883
			c0.227,0.681,0.337,1.474,0.907,1.474c0.563,0,0.827-1.474,0.827-1.474s0.678-3.016,0.827-3.921
			c0.156-0.907,0.716-5.623,2.412-7.093c1.699-1.47,4.154-1.848,8.604-2.15c4.453-0.301,6.827-0.904,6.827-0.904
			s2.606-0.302,2.606-1.095s-2.719-1.017-2.719-1.017s-4.869-0.53-7.209-0.719c-2.336-0.186-6.219-0.414-8.221-2.225
			c-1.999-1.811-2.451-5.847-2.75-7.43c-0.307-1.585-0.49-2.982-1.248-2.982s-1.1,1.849-1.32,3.021
			c-0.227,1.168-0.938,6.147-2.902,7.467c-1.965,1.321-5.735,2.299-10.186,2.527c-4.449,0.229-13.845,0.604-16.372,0.604
			c-2.526,0-13.504-0.147-18.291-0.375c-4.793-0.229-34.534-2.414-36.686-2.471c-2.148-0.056-14.203-0.791-19.24-2.885
			c-5.033-2.094-8.147-6.62-9.273-11.035c-1.137-4.411-3.761-16.48-3.761-16.48s-0.598-4.494-1.624-4.453
			c-1.182,0.049-1.633,4.641-1.633,4.641s-2.548,14.37-4.814,19.066c-2.259,4.696-8.37,9.335-16.629,10.185
			C129.468,57.276,112.265,58.692,112.265,58.692z"/>
	</g>
	<g>
		<path d="M267.649,89.747c-2.502,0.063-16.444,1.304-20.16,1.533c-3.706,0.229-4.999,2.604-5.53,3.678
			c-0.532,1.071-2.041,8.504-2.197,9.118c-0.151,0.61-0.382,1.837-0.758,1.837c-0.379,0-0.608-0.766-0.758-1.378
			c-0.152-0.612-1.665-7.203-2.124-9.04c-0.451-1.839-2.04-2.76-3.865-3.603c-1.814-0.844-6.359-1.07-6.359-1.07
			s-3.713-0.382-6.519-0.537c-2.806-0.155-4.241-0.69-4.241-1.458c0-0.763,1.889-0.688,4.164-0.996
			c7.352-0.229,9.549-0.614,13.49-1.837c3.598-1.123,4.165-6.207,4.547-8.045c0.376-1.837,0.831-3.909,1.516-3.909
			c0.683,0,0.908,0.691,1.362,3.45c0.839,5.362,2.121,7.507,4.552,8.504c4.244,1.455,17.657,1.837,20.229,1.915
			c0,0,7.994,0.13,12.138-0.096c4.154-0.228,11.475-0.98,13.129-1.355c1.658-0.38,3.998-1.286,4.453-4.001
			c0.452-2.715,1.131-5.81,1.961-5.81c0.827,0,1.282,2.339,1.432,2.942c0,0,0.63,5.216,3.592,6.287
			c2.969,1.067,7.477,1.423,9.318,1.542c1.843,0.118,3.438,0.476,3.438,1.305c0,0.833-2.37,1.364-3.379,1.364
			c-1.004,0-6.229,0.179-8.071,1.01c-1.839,0.833-3.443,1.425-4.152,4.986c-0.713,3.561-1.071,4.749-1.071,4.749
			s-0.114,1.482-1.063,1.482c-0.955,0-1.191-1.9-1.191-1.9s-1.126-5.579-1.896-6.825c-0.771-1.246-1.663-3.027-8.964-3.262
			C277.365,90.086,274.133,89.583,267.649,89.747z"/>
	</g>
</g>
<g>
	<path d="M183.742,118.744c0,0,4.529,0.224,6.34,1.055c1.808,0.83,3.393,1.736,3.845,3.546c0.452,1.809,1.964,8.297,2.113,8.9
		s0.379,1.36,0.755,1.36c0.375,0,0.602-1.208,0.754-1.812c0.153-0.603,1.658-7.922,2.19-8.977c0.528-1.059,1.811-3.394,5.506-3.622
		c3.693-0.226,17.578-1.436,20.066-1.508c2.488-0.075,16.978,0.377,20.445,0.678c3.469,0.301,8.37,0.603,9.504,3.319
		c1.133,2.717,1.432,5.279,1.734,6.262c0.299,0.982,0.527,1.736,1.21,1.736c0.678,0,0.979-1.208,1.129-1.887
		c0.149-0.68,0.979-7.999,4.905-8.753c3.924-0.752,10.031-1.279,11.391-1.355c1.359-0.075,2.485-0.151,2.485-1.133
		c0-0.98-1.734-0.98-2.867-0.98c-1.127,0-8.442-0.377-11.313-1.508c-2.865-1.13-3.923-3.094-4.601-7.394
		c-0.229-1.283-0.754-2.414-1.358-2.414c-0.602,0-1.13,1.434-1.358,2.491c-0.224,1.055-0.146,4.751-2.562,6.335
		c-2.414,1.585-4.981,2.113-13.355,2.567c-8.37,0.452-15.465,0.299-18.026,0.226c-2.569-0.077-15.92-0.454-20.144-1.888
		c-2.416-0.979-3.698-3.09-4.529-8.374c-0.452-2.715-0.678-3.396-1.355-3.396c-0.682,0-1.134,2.037-1.513,3.848
		c-0.375,1.811-0.938,6.818-4.521,7.92c-3.925,1.208-6.111,1.585-13.429,1.811c-2.263,0.302-4.153,0.228-4.153,0.982
		c0,0.754,1.436,1.281,4.227,1.434C180.047,118.365,183.742,118.744,183.742,118.744z"/>
</g>
<g>
	<path d="M314.114,88.129c0.226,0.165,0.344,0.36,0.344,0.593c0,0.351-0.421,0.65-0.99,0.879l6.896,0.325
		c1.171-0.228,2.415-0.579,2.415-1.057c0-0.659-0.554-0.994-2.12-1.306L314.114,88.129z"/>
</g>
</svg>
