<?xml version="1.0" encoding="utf-8"?>
<!-- Generator: Adobe Illustrator 15.0.0, SVG Export Plug-In . SVG Version: 6.00 Build 0)  -->
<!DOCTYPE svg PUBLIC "-//W3C//DTD SVG 1.1//EN" "http://www.w3.org/Graphics/SVG/1.1/DTD/svg11.dtd">
<svg version="1.1" id="Layer_1" xmlns="http://www.w3.org/2000/svg" xmlns:xlink="http://www.w3.org/1999/xlink" x="0px" y="0px"
	 width="252.358px" height="164.398px" viewBox="0 0 252.358 164.398" enable-background="new 0 0 252.358 164.398"
	 xml:space="preserve">
<g>
	<path d="M118.271,156.034c-13.232-8.288-22.98-36.89-22.98-70.873c0-1.247,0.008-2.476,0.036-3.705l0,0l0.016,0.018l0,0
		C58.54,75.69,31.949,59.844,31.268,41.106l0,0l-0.108,0.216l0,0c-9.005,11.191-14.145,24.13-14.145,37.917
		c0,40.569,44.533,73.81,101.018,76.75l0,0L118.271,156.034L118.271,156.034L118.271,156.034z M0,82.199C0,36.805,56.49,0,126.179,0
		c69.687,0,126.179,36.805,126.179,82.199c0,45.394-56.493,82.199-126.179,82.199C56.49,164.398,0,127.592,0,82.199L0,82.199
		L0,82.199L0,82.199z M126.179,11.863c13.453,0,24.896,20.407,29.135,48.881l0,0l0.016-0.043l0,0
		c26.172-4.074,44.497-13.472,44.497-24.408c0-14.678-32.977-26.563-73.648-26.563c-40.674,0-73.648,11.886-73.648,26.563
		c0,10.936,18.322,20.334,44.497,24.408l0,0l0.016,0.043l0,0C101.283,32.271,112.729,11.863,126.179,11.863L126.179,11.863
		L126.179,11.863L126.179,11.863z M134.323,155.988c56.485-2.939,101.024-36.182,101.024-76.75c0-13.786-5.146-26.725-14.15-37.917
		l0,0l-0.11-0.216l0,0c-0.681,18.738-27.265,34.584-64.072,40.368l0,0l0.016-0.018l0,0c0.025,1.229,0.038,2.458,0.038,3.705
		c0,33.982-9.755,62.585-22.979,70.873l0,0L134.323,155.988L134.323,155.988L134.323,155.988z M126.179,62.86
		c6.027,0,11.886-0.257,17.492-0.751l0,0l-0.008,0.009l0,0c-2.79-18.253-9.566-31.135-17.484-31.135
		c-7.918,0-14.693,12.882-17.487,31.135l0,0l-0.007-0.009l0,0C114.291,62.603,120.152,62.86,126.179,62.86L126.179,62.86
		L126.179,62.86L126.179,62.86z M126.179,130.454c10.128,0,18.39-21.077,18.831-47.513l0,0l0.054,0.019l0,0
		c-6.105,0.565-12.42,0.86-18.884,0.86c-6.47,0-12.779-0.295-18.884-0.86l0,0l0.057-0.019l0,0
		C107.787,109.376,116.047,130.454,126.179,130.454L126.179,130.454L126.179,130.454L126.179,130.454z"/>
</g>
</svg>
