<?xml version="1.0" encoding="utf-8"?>
<!-- Generator: Adobe Illustrator 15.0.0, SVG Export Plug-In . SVG Version: 6.00 Build 0)  -->
<!DOCTYPE svg PUBLIC "-//W3C//DTD SVG 1.1//EN" "http://www.w3.org/Graphics/SVG/1.1/DTD/svg11.dtd">
<svg version="1.1" id="Layer_1" xmlns="http://www.w3.org/2000/svg" xmlns:xlink="http://www.w3.org/1999/xlink" x="0px" y="0px"
	 width="514.935px" height="514.935px" viewBox="0 0 514.935 514.935" enable-background="new 0 0 514.935 514.935"
	 xml:space="preserve">
<path d="M257.467,0C115.272,0,0,115.277,0,257.467c0,142.195,115.272,257.467,257.467,257.467
	c142.19,0,257.467-115.272,257.467-257.467C514.935,115.277,399.658,0,257.467,0z M257.467,491.848
	c-129.447,0-234.381-104.934-234.381-234.381c0-129.442,104.934-234.381,234.381-234.381c129.442,0,234.381,104.939,234.381,234.381
	C491.848,386.914,386.91,491.848,257.467,491.848z"/>
<path d="M206.15,82.354c16.279-4.761,33.498-7.313,51.317-7.313c17.792,0,34.996,2.547,51.257,7.299l-51.257,113.619L206.15,82.354z
	"/>
<path d="M355.39,103.522c19.227,12.256,35.999,28.011,49.426,46.369l-84.131,186.171l-32.463-72.184h-61.509l-32.463,72.184
	l-84.007-186.345c13.404-18.284,30.13-33.976,49.293-46.191l67.177,149.029h61.718L355.39,103.522z"/>
<path d="M81.206,210.251c-4.023,15.063-6.169,30.892-6.169,47.216c0,71.492,41.12,133.374,100.998,163.295L81.206,210.251z"/>
<path d="M206.998,432.827c16.024,4.606,32.959,7.071,50.469,7.071c17.487,0,34.399-2.46,50.41-7.053l-50.41-111.946L206.998,432.827
	z"/>
<path d="M338.896,420.762c59.878-29.921,100.998-91.803,100.998-163.295c0-16.184-2.105-31.875-6.06-46.815L338.896,420.762z"/>
</svg>
